<svg width="44" height="44" viewBox="0 0 44 44" fill="none" xmlns="http://www.w3.org/2000/svg">
<path d="M30.4178 13.805C30.426 13.805 30.437 13.805 30.448 13.805C30.7354 13.805 31.0021 13.8944 31.2208 14.0484L31.2166 14.0457C31.3761 14.1845 31.4834 14.3798 31.5095 14.5998V14.6039C31.537 14.7717 31.5521 14.9642 31.5521 15.1608C31.5521 15.2502 31.5494 15.3382 31.5425 15.4262V15.4138C31.2331 18.6712 29.8911 26.5705 29.2091 30.217C28.9204 31.7612 28.3525 32.2782 27.8025 32.3277C26.6076 32.439 25.7001 31.5384 24.5424 30.7794C22.7301 29.59 21.7058 28.8503 19.9471 27.6912C17.9135 26.3533 19.2321 25.6149 20.3899 24.4132C20.6938 24.0969 25.9614 19.305 26.0645 18.8706C26.07 18.8444 26.0728 18.8155 26.0728 18.7853C26.0728 18.678 26.0329 18.5804 25.9683 18.5062C25.8968 18.4594 25.8074 18.4333 25.7139 18.4333C25.652 18.4333 25.5929 18.4457 25.5379 18.4663L25.5406 18.4649C25.3591 18.5062 22.4643 20.4193 16.8561 24.2042C16.2443 24.6868 15.4715 24.992 14.63 25.0278H14.6218C13.4296 24.8834 12.3475 24.618 11.3204 24.2399L11.4221 24.2729C10.1324 23.8522 9.10801 23.6308 9.19601 22.9185C9.24276 22.5482 9.75334 22.1692 10.7278 21.7814C16.7301 19.1662 20.7327 17.4424 22.7356 16.61C24.9453 15.4372 27.5069 14.4719 30.2005 13.8463L30.4164 13.8037L30.4178 13.805ZM21.9038 1.40942C10.4885 1.43692 1.24438 10.6975 1.24438 22.1169C1.24438 33.5528 10.5146 42.8244 21.9519 42.8244C33.3891 42.8244 42.6594 33.5542 42.6594 22.1169C42.6594 10.6975 33.4153 1.43692 22.0028 1.40942H22C21.9679 1.40942 21.9358 1.40942 21.9038 1.40942Z" fill="white"/>
</svg>
