<svg width="44" height="44" viewBox="0 0 44 44" fill="none" xmlns="http://www.w3.org/2000/svg">
<path d="M34.6734 30.8029H31.6773C30.5429 30.8029 30.1923 29.9009 28.1545 27.8356C26.3794 26.1169 25.5943 25.8859 25.1584 25.8859C24.5465 25.8859 24.3719 26.0605 24.3719 26.9047V29.6107C24.3719 30.3395 24.1395 30.7754 22.2186 30.7754C18.3439 30.5155 15.0136 28.4021 13.0804 25.3221L13.0515 25.274C10.8075 22.4869 9.15338 19.1277 8.33526 15.4537L8.30501 15.2929C8.30501 14.857 8.47963 14.4486 9.32388 14.4486H12.32C13.0763 14.4486 13.3678 14.7979 13.6606 15.6119C15.1429 19.8909 17.6179 23.6446 18.6368 23.6446C19.0149 23.6446 19.1895 23.47 19.1895 22.5102V18.0841C19.0726 16.0464 17.996 15.8731 17.996 15.1457C18.0084 14.7566 18.3274 14.4459 18.7179 14.4459C18.7303 14.4459 18.7413 14.4459 18.7536 14.4472H18.7523H23.4671C24.1079 14.4472 24.3403 14.7965 24.3403 15.5527V21.5202C24.3403 22.1596 24.6318 22.3934 24.8064 22.3934C25.1845 22.3934 25.5063 22.1596 26.2034 21.4625C27.6526 19.6929 28.8915 17.6689 29.8361 15.4867L29.8994 15.3217C30.0988 14.8226 30.5773 14.4761 31.1369 14.4761C31.163 14.4761 31.1878 14.4775 31.2139 14.4789H31.2098H34.2059C35.1079 14.4789 35.3128 14.9422 35.1079 15.5844C33.9061 18.2312 32.5559 20.5055 30.9911 22.612L31.0626 22.5102C30.7436 23.0341 30.6268 23.2665 31.0626 23.8509C31.3816 24.2867 32.4308 25.1887 33.1293 26.0041C34.1399 27.0037 34.9869 28.167 35.6263 29.4512L35.6606 29.5269C35.9521 30.3684 35.5149 30.8056 34.6706 30.8056L34.6734 30.8029ZM28.3305 1.38062H15.6709C4.11676 1.38062 1.38188 4.11549 1.38188 15.6696V28.3292C1.38188 39.8834 4.11676 42.6182 15.6709 42.6182H28.3305C39.8846 42.6182 42.6195 39.8834 42.6195 28.3292V15.6696C42.6195 4.11549 39.8544 1.38062 28.3305 1.38062Z" fill="white"/>
</svg>
