<svg width="56" height="39" viewBox="0 0 56 39" fill="none" xmlns="http://www.w3.org/2000/svg">
<path fill-rule="evenodd" clip-rule="evenodd" d="M22.2535 26.7042V11.0713C27.8032 13.6827 32.1014 16.2053 37.185 18.9251C32.9922 21.2504 27.8032 23.8594 22.2535 26.7042ZM53.1821 3.29629C52.2247 2.03503 50.5932 1.05325 48.8561 0.72821C43.7504 -0.241357 11.8977 -0.244115 6.79478 0.72821C5.4018 0.989343 4.1614 1.62054 3.09585 2.60122C-1.39387 6.76837 0.0129986 29.1154 1.0952 32.7353C1.55027 34.3022 2.13856 35.4322 2.87945 36.174C3.834 37.1546 5.14094 37.8299 6.64214 38.1327C10.846 39.0022 32.5038 39.4884 48.7673 38.2632C50.2657 38.0021 51.592 37.3051 52.6382 36.2828C56.7893 32.1323 56.5064 8.53023 53.1821 3.29629Z" fill="white"/>
</svg>
